PathFileType	4	(X/Y/Z)	C:/Users/beibeiliu/ov580/test_trc/User2\sequence.28_training_dense_right.trc
DataRate	CameraRate	NumFrames	NumMarkers	Units	OrigDataRate	OrigDataStartFrame	OrigNumFrames
120	120	14	19	mm	120	57	85
Frame#	Time	ThumbCMC			ThumbMCP			ThumbIP			ThumbTip			IndexMCP			IndexPIP			IndexTip			MiddleMCP			MiddlePIP			MiddleTip			RingMCP			RingPIP			RingTip			PinkyMCP			PinkyPIP			PinkyTip			BackHand1			BackHand2			BackHand3	
		X0	Y0	Z0	X1	Y1	Z1	X2	Y2	Z2	X3	Y3	Z3	X4	Y4	Z4	X5	Y5	Z5	X6	Y6	Z6	X7	Y7	Z7	X8	Y8	Z8	X9	Y9	Z9	X10	Y10	Z10	X11	Y11	Z11	X12	Y12	Z12	X13	Y13	Z13	X14	Y14	Z14	X15	Y15	Z15	X16	Y16	Z16	X17	Y17	Z17	X18	Y18	Z18	
56	0.466667	51.2439	69.3529	7.33711	35.6862	76.81	-28.8931	32.6926	88.9234	-60.4334	38.6006	96.394	-85.8044	62.5167	132.612	-37.1005	47.1185	131.745	-60.6206	32.7239	113.526	-85.2644	81.5247	132.482	-46.256	65.7804	131.517	-77.2812	44.3846	111.209	-100.378	97.4019	120.437	-55.5806	82.5738	120.983	-86.1234	60.5269	103.773	-102.271	108.292	101.923	-58.9511	94.7175	104.719	-86.8849	72.3277	98.4056	-104.51	118.03	83.7824	-6.00102	119.293	59.3603	16.3342	89.9861	86.5432	21.0991	
57	0.475	45.7668	61.5665	3.44023	31.0896	71.5949	-34.33	28.0449	83.0225	-68.9248	39.7783	86.2406	-88.3219	56.0456	126.236	-39.619	44.0927	123.415	-69.4682	32.8684	101.119	-91.8231	79.437	124.488	-52.5849	60.6311	123.419	-85.4072	45.9174	100.481	-106.842	96.8943	110.724	-62.2661	80.4065	110.918	-89.8293	54.8425	92.4526	-105.295	108.536	93.9664	-67.0515	89.8928	95.0773	-88.5005	66.4746	84.9803	-108.52	111.589	79.8993	-6.53376	115.347	56.2951	12.368	85.4229	80.5174	17.1191	
58	0.483333	48.557	54.0016	-5.1784	32.1258	53.3244	-40.0629	29.3566	59.0307	-75.1492	50.3303	60.4011	-98.1458	63.0084	106.818	-57.9723	46.8113	99.7675	-87.4032	37.4063	73.6121	-102.112	85.1646	103.24	-67.3984	69.7571	93.5491	-103.731	48.2411	66.3624	-117.72	98.5745	88.7449	-75.4313	85.8758	76.8035	-104.549	62.754	57.5304	-113.363	114.68	67.4576	-76.3801	96.4345	61.56	-101.159	73.7018	47.7846	-114.377	116.396	64.4878	-16.0444	117.122	43.9699	12.0525	86.7932	71.5003	9.36135	
59	0.491667	52.7157	34.5437	-13.1424	32.6595	25.2714	-46.8599	37.129	18.5917	-81.8218	53.1315	11.2096	-101.275	66.2085	67.9964	-82.3292	55.7629	49.7103	-106.644	43.4489	17.9774	-110.135	87.5495	55.8114	-93.6941	71.375	35.2109	-118.996	52.4306	6.37843	-121.76	104.272	39.5555	-94.6609	87.9959	20.5215	-115.79	65.11	-2.93036	-113.309	119.24	20.9608	-84.8714	100.585	5.64589	-106.8	74.5674	-7.61907	-107.281	118.394	42.8256	-32.9575	120.541	31.2438	4.00132	91.9444	55.9002	-6.47985	
60	0.5	45.4285	31.5579	-12.3212	27.5266	15.194	-41.312	18.9055	-0.564425	-72.8162	35.6503	-17.5909	-93.2762	59.8561	36.1778	-94.7963	38.3211	14.5054	-109.475	19.8789	-11.5855	-100.37	75.6593	22.8574	-97.9209	51.681	-0.267478	-114.99	27.5789	-33.2386	-104.023	87.8775	-0.804042	-99.7539	67.2114	-19.6734	-108.562	40.3722	-37.6064	-94.8859	102.779	-17.7152	-83.6183	73.8005	-30.7537	-97.4885	51.3328	-43.935	-88.6323	114.282	19.7411	-40.3019	117.682	19.7051	-4.89571	90.8151	45.813	-22.0251	
61	0.508333	48.9593	50.5688	-17.1671	16.0404	42.596	-35.1689	-0.434391	23.1748	-63.5159	9.73594	-1.34424	-75.9633	51.0971	38.8726	-92.8217	22.2142	19.5431	-103.323	-3.10611	9.39357	-89.643	59.9809	13.0594	-96.0056	23.6714	1.45411	-107.082	-5.80386	-11.1165	-89.2264	60.8823	-5.68759	-93.4273	34.4337	-17.3362	-99.2156	5.13739	-22.6492	-79.9983	67.6334	-24.4706	-80.063	39.8823	-33.458	-84.3163	8.78621	-27.0457	-68.8326	100.402	7.54294	-44.523	110.192	12.4346	-10.7441	91.5466	46.709	-28.3843	
62	0.516667	71.521	70.2142	-23.586	38.0316	75.621	-41.0891	10.2587	64.8065	-66.854	1.231	40.3505	-75.6915	55.4261	44.3221	-95.2076	24.5487	45.4787	-102.388	-6.32281	54.2633	-88.3774	46.319	21.3646	-99.8286	13.1916	29.3254	-104.004	-19.3974	36.7982	-82.1993	41.0216	2.00254	-87.3952	8.34017	13.2232	-92.6655	-16.2379	27.6144	-70.618	38.621	-14.8666	-70.6679	7.97861	-1.15152	-77.2163	-10.0603	20.3492	-63.0774	87.4709	2.29384	-41.4773	101.528	2.72537	-9.54618	99.9715	37.6254	-35.9061	
63	0.525	97.2134	69.0435	-34.8508	70.0776	85.8635	-53.7347	42.0126	90.6927	-76.3215	16.697	73.3255	-85.4193	65.1007	43.8147	-99.8277	40.5692	65.3482	-111.636	16.1711	82.6364	-96.8224	48.343	27.7574	-97.9183	22.902	48.2503	-107.229	-3.67977	77.2954	-91.0714	33.4253	15.7244	-84.3598	9.34609	36.6501	-92.3484	-2.5929	65.074	-79.909	24.4959	6.28471	-65.3626	6.89111	27.4313	-77.7206	-5.6645	56.1167	-73.6134	75.4323	-0.928686	-41.3489	91.2936	1.16475	-6.71172	106.623	26.5361	-39.5842	
64	0.533333	119.276	59.4029	-33.682	97.6085	81.9945	-63.4443	74.8757	94.0936	-83.8678	46.4287	86.5863	-95.5027	84.3143	37.7746	-103.87	62.9747	64.4265	-118.2	46.0701	89.3281	-111.002	61.9275	29.1741	-100.815	39.1956	54.5953	-111.918	28.6549	89.4004	-107.027	41.3863	23.0626	-85.8057	22.0873	50.7593	-98.9731	22.2557	79.6279	-94.4524	30.7153	19.893	-66.0869	15.7294	42.7224	-83.109	10.1671	70.576	-86.2239	72.9183	1.3818	-36.8659	89.4988	1.06489	-3.6224	111.992	15.1598	-35.0163	
65	0.541667	130.628	49.7554	-36.216	111.777	69.0788	-62.7986	94.1669	81.0806	-90.298	69.7944	81.5303	-103.802	96.2033	23.5844	-102.862	76.5946	47.5106	-119.586	66.2866	74.0047	-121.621	68.8696	17.7828	-102.35	55.9753	43.5336	-117.886	49.9245	78.5812	-118.24	53.8377	16.8972	-90.774	41.7702	40.3013	-107.082	42.1903	74.6282	-106.836	40.6511	16.8907	-70.2827	27.6387	39.2563	-90.4382	28.8746	63.4643	-98.4355	79.6668	-1.89145	-31.6601	94.3713	0.973438	0.0544313	116.823	3.46787	-33.0417	
66	0.55	137.792	35.9853	-39.0338	119.942	52.5371	-66.8666	102.452	59.2276	-100.126	80.7306	58.3311	-113.5	103.958	4.54765	-105.162	93.4103	22.5272	-125.667	79.0881	54.3763	-132.293	83.4684	-3.93495	-101.527	68.703	20.6442	-124.696	59.6825	58.6441	-127.483	61.5856	-3.90999	-94.5206	50.7355	19.2168	-114.337	52.4646	49.5647	-117.95	50.2817	-1.429	-72.812	41.006	14.2234	-94.8914	36.6184	42.9749	-108.99	83.8333	-16.735	-33.7825	96.5516	-9.4103	-1.35427	124.726	-7.12378	-28.9894	
67	0.558333	146.018	23.3751	-43.2873	127.017	35.0987	-74.3838	107.708	35.363	-104.91	90.2589	35.8918	-122.843	117.533	-16.0502	-107.743	105.863	2.56663	-130.47	89.2101	29.3087	-137.487	99.2822	-23.426	-109.295	82.5376	-4.5567	-130.338	70.6597	29.168	-137.555	76.5958	-28.6462	-93.6912	65.7912	-11.3185	-119.195	62.1636	21.4969	-127.531	60.5919	-23.4157	-76.5567	54.2525	-7.85586	-106.371	48.5753	14.0153	-119.396	97.7173	-30.9611	-33.9114	104.861	-23.2018	-0.386108	137.066	-21.0929	-33.2638	
68	0.566667	151.696	22.0203	-45.5014	134.551	30.7513	-76.4087	118.615	31.9779	-112.479	100.148	23.6008	-129.765	138.717	-21.3311	-109.518	122.674	-7.11543	-132.557	107.172	19.7912	-142.311	118.348	-34.8505	-114.524	102.864	-16.7821	-136.38	85.285	14.5822	-145.728	97.5339	-42.4516	-102.555	88.1065	-26.1703	-127.353	78.7974	7.54675	-138.005	82.8447	-39.2694	-87.096	75.6338	-27.4694	-110.738	68.1286	-2.6813	-130.877	117.496	-40.2767	-39.7868	119.084	-32.3568	-9.43121	147.884	-25.3087	-34.9244	
69	0.575	151.229	31.7148	-44.9616	135.864	42.3465	-75.4679	122.438	38.3367	-112.651	108.462	28.0035	-128.961	161.982	3.1284	-115.586	143.065	13.9861	-135.202	118.238	30.9633	-142.246	150.345	-18.4941	-117.523	130.496	-3.78349	-142.05	98.8626	16.1242	-149.094	132.321	-34.7368	-109.83	118.582	-20.1079	-133.901	93.5856	5.2574	-140.87	117.023	-38.503	-99.2764	101.582	-30.8558	-120.915	89.07	-9.47821	-135.813	142.75	-37.8086	-48.7409	142.078	-26.4606	-12.801	166.402	-5.06882	-33.5012	
